<svg width="464" height="192" viewBox="0 0 464 192" fill="none" xmlns="http://www.w3.org/2000/svg">
<path fill-rule="evenodd" clip-rule="evenodd" d="M42.5051 99.5341L39.9565 99.4181C32.4204 99.075 26.3766 91.6484 26.1011 82.3926L26 78.9945L25.8989 82.3926C25.6234 91.6484 19.5796 99.075 12.0435 99.4181L9.49485 99.5341L12.0435 99.6501C19.5796 99.9931 25.6234 107.42 25.8989 116.676L26 120.074L26.1011 116.676C26.3766 107.42 32.4204 99.9931 39.9565 99.6501L42.5051 99.5341ZM51.5694 99.0835C51.8103 99.0944 52 99.2929 52 99.5341C52 99.7752 51.8103 99.9737 51.5694 99.9847L39.9825 100.512C32.814 100.838 27.065 107.903 26.803 116.707L26.4193 140.587C26.4156 140.816 26.229 141 26 141C25.771 141 25.5843 140.816 25.5807 140.587L25.197 116.707C24.935 107.903 19.186 100.838 12.0175 100.512L0.430563 99.9847C0.189668 99.9737 1.72638e-06 99.7752 1.73692e-06 99.5341C1.74746e-06 99.2929 0.189669 99.0944 0.430563 99.0835L12.0175 98.5561C19.186 98.2298 24.935 91.1654 25.197 82.361L25.582 52.4127C25.5849 52.1839 25.7712 52 26 52C26.2288 52 26.4151 52.1839 26.418 52.4127L26.803 82.361C27.065 91.1654 32.814 98.2298 39.9825 98.5561L51.5694 99.0835Z" fill="url(#paint0_linear_9_10)"/>
<path d="M39.9565 99.4181L42.5051 99.5341L39.9565 99.6501C32.4204 99.9931 26.3766 107.42 26.1011 116.676L26 120.074L25.8989 116.676C25.6234 107.42 19.5796 99.9931 12.0435 99.6501L9.49485 99.5341L12.0435 99.4181C19.5796 99.075 25.6234 91.6484 25.8989 82.3926L26 78.9945L26.1011 82.3926C26.3766 91.6484 32.4204 99.075 39.9565 99.4181Z" fill="url(#paint1_linear_9_10)"/>
<path d="M72.832 141L51.584 104.52H37.504V141H25.856V51.784H54.656C61.3973 51.784 67.072 52.936 71.68 55.24C76.3733 57.544 79.872 60.6587 82.176 64.584C84.48 68.5093 85.632 72.9893 85.632 78.024C85.632 84.168 83.84 89.5867 80.256 94.28C76.7573 98.9733 71.4667 102.088 64.384 103.624L86.784 141H72.832ZM37.504 95.176H54.656C60.9707 95.176 65.7067 93.64 68.864 90.568C72.0213 87.4107 73.6 83.2293 73.6 78.024C73.6 72.7333 72.0213 68.6373 68.864 65.736C65.792 62.8347 61.056 61.384 54.656 61.384H37.504V95.176ZM154.931 103.24C154.931 105.459 154.803 107.805 154.547 110.28H98.483C98.9097 117.192 101.256 122.611 105.523 126.536C109.875 130.376 115.123 132.296 121.267 132.296C126.302 132.296 130.483 131.144 133.811 128.84C137.224 126.451 139.614 123.293 140.979 119.368H153.523C151.646 126.109 147.891 131.613 142.259 135.88C136.627 140.061 129.63 142.152 121.267 142.152C114.611 142.152 108.638 140.659 103.347 137.672C98.1417 134.685 94.0457 130.461 91.059 125C88.0723 119.453 86.579 113.053 86.579 105.8C86.579 98.5467 88.0297 92.1893 90.931 86.728C93.8323 81.2667 97.8857 77.0853 103.091 74.184C108.382 71.1973 114.44 69.704 121.267 69.704C127.923 69.704 133.811 71.1547 138.931 74.056C144.051 76.9573 147.976 80.968 150.707 86.088C153.523 91.1227 154.931 96.84 154.931 103.24ZM142.899 100.808C142.899 96.3707 141.918 92.5733 139.955 89.416C137.992 86.1733 135.304 83.7413 131.891 82.12C128.563 80.4133 124.851 79.56 120.755 79.56C114.867 79.56 109.832 81.4373 105.651 85.192C101.555 88.9467 99.2083 94.152 98.611 100.808H142.899ZM194.114 141L177.474 114.888L161.474 141H149.314L171.97 106.184L149.314 70.856H162.498L179.138 96.84L195.01 70.856H207.17L184.642 105.544L207.298 141H194.114ZM268.164 70.856V141H256.516V130.632C254.297 134.216 251.183 137.032 247.172 139.08C243.247 141.043 238.895 142.024 234.116 142.024C228.655 142.024 223.748 140.915 219.396 138.696C215.044 136.392 211.588 132.979 209.028 128.456C206.553 123.933 205.316 118.429 205.316 111.944V70.856H216.836V110.408C216.836 117.32 218.585 122.653 222.084 126.408C225.583 130.077 230.361 131.912 236.42 131.912C242.649 131.912 247.556 129.992 251.14 126.152C254.724 122.312 256.516 116.723 256.516 109.384V70.856H268.164ZM359.383 69.576C364.844 69.576 369.708 70.728 373.975 73.032C378.242 75.2507 381.612 78.6213 384.087 83.144C386.562 87.6667 387.799 93.1707 387.799 99.656V141H376.279V101.32C376.279 94.3227 374.53 88.9893 371.031 85.32C367.618 81.5653 362.967 79.688 357.079 79.688C351.02 79.688 346.199 81.6507 342.615 85.576C339.031 89.416 337.239 95.0053 337.239 102.344V141H325.719V101.32C325.719 94.3227 323.97 88.9893 320.471 85.32C317.058 81.5653 312.407 79.688 306.519 79.688C300.46 79.688 295.639 81.6507 292.055 85.576C288.471 89.416 286.679 95.0053 286.679 102.344V141H275.031V70.856H286.679V80.968C288.983 77.2987 292.055 74.4827 295.895 72.52C299.82 70.5573 304.13 69.576 308.823 69.576C314.711 69.576 319.916 70.8987 324.439 73.544C328.962 76.1893 332.332 80.072 334.551 85.192C336.514 80.2427 339.756 76.4027 344.279 73.672C348.802 70.9413 353.836 69.576 359.383 69.576ZM458.106 103.24C458.106 105.459 457.978 107.805 457.722 110.28H401.658C402.085 117.192 404.431 122.611 408.698 126.536C413.05 130.376 418.298 132.296 424.442 132.296C429.477 132.296 433.658 131.144 436.986 128.84C440.399 126.451 442.789 123.293 444.154 119.368H456.698C454.821 126.109 451.066 131.613 445.434 135.88C439.802 140.061 432.805 142.152 424.442 142.152C417.786 142.152 411.813 140.659 406.522 137.672C401.317 134.685 397.221 130.461 394.234 125C391.247 119.453 389.754 113.053 389.754 105.8C389.754 98.5467 391.205 92.1893 394.106 86.728C397.007 81.2667 401.061 77.0853 406.266 74.184C411.557 71.1973 417.615 69.704 424.442 69.704C431.098 69.704 436.986 71.1547 442.106 74.056C447.226 76.9573 451.151 80.968 453.882 86.088C456.698 91.1227 458.106 96.84 458.106 103.24ZM446.074 100.808C446.074 96.3707 445.093 92.5733 443.13 89.416C441.167 86.1733 438.479 83.7413 435.066 82.12C431.738 80.4133 428.026 79.56 423.93 79.56C418.042 79.56 413.007 81.4373 408.826 85.192C404.73 88.9467 402.383 94.152 401.786 100.808H446.074Z" fill="black"/>
<defs>
<linearGradient id="paint0_linear_9_10" x1="26" y1="67.1705" x2="26" y2="131.898" gradientUnits="userSpaceOnUse">
<stop stop-color="#FB8C3E"/>
<stop offset="1" stop-color="#FE0196"/>
</linearGradient>
<linearGradient id="paint1_linear_9_10" x1="26" y1="67.1705" x2="26" y2="131.898" gradientUnits="userSpaceOnUse">
<stop stop-color="#FB8C3E"/>
<stop offset="1" stop-color="#FE0196"/>
</linearGradient>
</defs>
</svg>
