<svg width="471" height="151" viewBox="0 0 471 151" fill="none" xmlns="http://www.w3.org/2000/svg">
<path d="M71.808 114C69.6747 114 67.5413 112.933 65.408 110.8C63.36 108.581 61.4827 105.851 59.776 102.608C58.1547 99.3653 56.2347 95.8667 54.016 92.112C51.7973 88.272 49.5787 84.688 47.36 81.36C45.1413 78.032 42.3253 75.216 38.912 72.912C35.4987 70.608 31.872 69.3707 28.032 69.2V85.072C28.032 94.288 28.288 100.56 28.8 103.888C29.3973 107.131 30.208 109.179 31.232 110.032C33.28 111.653 36.4373 112.464 40.704 112.464L40.96 114H6.656L6.912 112.464C11.0933 112.464 14.1653 111.696 16.128 110.16C17.7493 108.88 18.688 104.699 18.944 97.616C19.1147 94.8 19.2 90.6187 19.2 85.072V52.688C19.2 43.216 18.944 36.944 18.432 33.872C17.92 30.8 17.152 28.88 16.128 28.112C14.1653 26.6613 11.0933 25.936 6.912 25.936L6.656 24.4H36.352C57.856 24.4 68.608 31.6533 68.608 46.16C68.608 52.3893 66.3893 57.6373 61.952 61.904C57.6 66.0853 52.3093 68.5173 46.08 69.2C52.3093 72.8693 58.0693 79.6107 63.36 89.424C65.408 93.264 67.584 96.9333 69.888 100.432C74.9227 108.453 81.408 112.464 89.344 112.464L89.6 114H71.808ZM28.032 27.344V66.64H36.096C42.5813 66.64 47.9573 64.976 52.224 61.648C56.4907 58.32 58.624 53.3707 58.624 46.8C58.624 33.8293 51.2 27.344 36.352 27.344H28.032ZM132.402 81.616H90.418V83.792C90.418 92.8373 92.338 99.7493 96.178 104.528C100.018 109.221 104.797 111.568 110.514 111.568C119.047 111.568 125.191 108.155 128.946 101.328L130.866 102.352C126.429 110.971 119.005 115.28 108.594 115.28C100.914 115.28 94.3433 112.507 88.882 106.96C83.4207 101.413 80.69 93.9467 80.69 84.56C80.69 75.088 83.0793 67.3227 87.858 61.264C92.722 55.2053 99.1647 52.176 107.186 52.176C115.293 52.176 121.522 54.9493 125.874 60.496C130.226 65.9573 132.402 72.9973 132.402 81.616ZM107.57 54.736C102.621 54.736 98.6953 56.8693 95.794 61.136C92.978 65.3173 91.2713 70.9067 90.674 77.904H122.546C121.949 62.4587 116.957 54.736 107.57 54.736ZM177.476 58.32C177.476 56.1013 175.3 54.992 170.948 54.992L170.692 53.456H194.244L193.988 54.992C191.769 54.992 189.252 55.4613 186.436 56.4C184.729 56.9973 181.359 61.008 176.324 68.432C174.276 71.4187 172.527 73.8933 171.076 75.856L166.596 82L174.916 95.696C179.183 102.779 182.596 107.344 185.156 109.392C187.716 111.44 190.873 112.464 194.628 112.464L194.884 114H164.676L164.932 112.464C167.407 112.464 169.113 112.293 170.052 111.952C170.991 111.611 171.46 110.715 171.46 109.264C171.46 107.728 169.284 103.419 164.932 96.336L160.324 88.912L157.252 93.264C151.449 101.2 148.548 106.491 148.548 109.136C148.548 111.355 150.553 112.464 154.564 112.464L154.82 114H131.14L131.396 112.464C135.407 112.464 138.308 111.781 140.1 110.416C140.953 109.648 141.636 109.051 142.148 108.624C142.745 108.197 143.599 107.259 144.708 105.808C145.903 104.272 146.799 103.077 147.396 102.224C147.993 101.371 149.103 99.7493 150.724 97.36C152.431 94.9707 153.839 93.0507 154.948 91.6L158.788 86.224L150.852 73.04C146.244 65.5307 142.745 60.6667 140.356 58.448C138.052 56.144 135.321 54.992 132.164 54.992L131.908 53.456H159.556L159.3 54.992C156.996 54.992 155.375 55.2053 154.436 55.632C153.497 55.9733 153.028 56.6133 153.028 57.552C153.028 58.4053 155.631 63.3547 160.836 72.4L165.06 79.44L168.772 74.192C174.575 66.256 177.476 60.9653 177.476 58.32ZM238.666 100.048C240.031 96.72 241.013 93.3493 241.61 89.936C242.293 86.5227 242.634 82.8533 242.634 78.928C242.634 75.0027 242.549 71.7173 242.378 69.072C242.207 66.4267 241.909 64.08 241.482 62.032C241.055 59.8987 240.33 58.3627 239.306 57.424C237.429 55.8027 234.314 54.992 229.962 54.992L229.706 53.584C237.13 52.6453 244.426 52.176 251.594 52.176V85.584C251.594 95.056 251.893 101.285 252.49 104.272C253.087 107.173 254.538 108.624 256.842 108.624C258.293 108.624 260.213 108.027 262.602 106.832L263.242 108.112C262.559 108.624 261.663 109.264 260.554 110.032C259.445 110.715 257.183 111.653 253.77 112.848C250.357 114.043 247.071 114.64 243.914 114.64C243.061 109.691 242.634 103.973 242.634 97.488C238.709 109.349 231.925 115.28 222.282 115.28C209.226 115.28 202.698 108.453 202.698 94.8V82.384C202.698 69.584 202.058 61.8613 200.778 59.216C200.351 58.2773 199.583 57.424 198.474 56.656C197.45 55.888 196.298 55.4187 195.018 55.248C193.823 55.0773 192.159 54.992 190.026 54.992L189.77 53.584C197.194 52.6453 204.49 52.176 211.658 52.176V93.52C211.658 99.408 212.554 103.845 214.346 106.832C216.223 109.819 219.082 111.312 222.922 111.312C226.847 111.312 230.09 110.245 232.65 108.112C235.295 105.979 237.301 103.291 238.666 100.048ZM321.884 75.088C322.652 68.944 324.615 63.6107 327.772 59.088C331.015 54.48 335.495 52.176 341.212 52.176C346.929 52.176 351.367 53.9253 354.524 57.424C357.681 60.9227 359.26 66 359.26 72.656V92.88C359.26 101.755 359.815 107.259 360.924 109.392C362.119 111.44 365.191 112.464 370.14 112.464L370.396 114H340.188L340.444 112.464C345.137 112.464 347.953 111.397 348.892 109.264C349.831 107.131 350.3 101.285 350.3 91.728V73.936C350.3 68.048 349.447 63.6107 347.74 60.624C346.119 57.6373 343.473 56.144 339.804 56.144C336.135 56.144 333.105 57.5093 330.716 60.24C328.327 62.8853 326.535 66.256 325.34 70.352C323.036 78.288 321.884 86.2667 321.884 94.288C321.884 102.309 322.396 107.344 323.42 109.392C324.529 111.44 327.601 112.464 332.636 112.464L332.892 114H302.812L303.068 112.464C307.761 112.464 310.577 111.397 311.516 109.264C312.455 107.131 312.924 101.285 312.924 91.728V73.936C312.924 68.048 312.071 63.6107 310.364 60.624C308.743 57.6373 306.097 56.144 302.428 56.144C298.759 56.144 295.729 57.5093 293.34 60.24C290.951 62.8853 289.159 66.256 287.964 70.352C285.66 78.288 284.508 86.2667 284.508 94.288C284.508 102.309 285.02 107.344 286.044 109.392C287.153 111.44 290.225 112.464 295.26 112.464L295.516 114H264.284L264.54 112.464C269.66 112.464 272.775 111.44 273.884 109.392C274.993 107.259 275.548 101.669 275.548 92.624V82.384C275.548 69.584 274.908 61.8613 273.628 59.216C273.201 58.2773 272.433 57.424 271.324 56.656C270.3 55.888 269.148 55.4187 267.868 55.248C266.673 55.0773 265.009 54.992 262.876 54.992L262.62 53.584C270.044 52.6453 277.34 52.176 284.508 52.176V75.088C285.276 68.944 287.239 63.6107 290.396 59.088C293.639 54.48 298.119 52.176 303.836 52.176C315.868 52.176 321.884 59.8133 321.884 75.088ZM423.432 81.616H381.448V83.792C381.448 92.8373 383.368 99.7493 387.208 104.528C391.048 109.221 395.827 111.568 401.544 111.568C410.077 111.568 416.221 108.155 419.976 101.328L421.896 102.352C417.459 110.971 410.035 115.28 399.624 115.28C391.944 115.28 385.373 112.507 379.912 106.96C374.451 101.413 371.72 93.9467 371.72 84.56C371.72 75.088 374.109 67.3227 378.888 61.264C383.752 55.2053 390.195 52.176 398.216 52.176C406.323 52.176 412.552 54.9493 416.904 60.496C421.256 65.9573 423.432 72.9973 423.432 81.616ZM398.6 54.736C393.651 54.736 389.725 56.8693 386.824 61.136C384.008 65.3173 382.301 70.9067 381.704 77.904H413.576C412.979 62.4587 407.987 54.736 398.6 54.736Z" fill="black"/>
<path d="M464.669 41.2657L471 41.5001L464.669 41.7345C445.949 42.4276 430.935 57.4331 430.251 76.1344L430 83L429.749 76.1344C429.065 57.4331 414.051 42.4276 395.331 41.7345L389 41.5001L395.331 41.2657C414.051 40.5726 429.065 25.5671 429.749 6.8658L430 0L430.251 6.8658C430.935 25.5671 445.949 40.5726 464.669 41.2657Z" fill="url(#paint0_linear_46_4)"/>
<defs>
<linearGradient id="paint0_linear_46_4" x1="430" y1="-23.8904" x2="430" y2="106.891" gradientUnits="userSpaceOnUse">
<stop stop-color="#FB8C3E"/>
<stop offset="1" stop-color="#FE0196"/>
</linearGradient>
</defs>
</svg>
